<svg width="189" height="54" viewBox="0 0 189 54" fill="none" xmlns="http://www.w3.org/2000/svg">
<rect width="53.7209" height="53.7209" rx="9.76744" fill="#1684F8"/>
<path d="M11.3031 12.4806V32.7856C11.3031 33.0814 11.3984 33.3693 11.5747 33.6068L17.368 41.4054M11.3031 12.4806L17.368 19.2453M11.3031 12.4806H32.8998C33.2141 12.4806 33.5189 12.5881 33.7636 12.7852L41.783 19.2453M17.368 41.4054H40.4059C41.1665 41.4054 41.783 40.7888 41.783 40.0283V19.2453M17.368 41.4054V30.3253M17.368 19.2453H41.783M17.368 19.2453V30.3253M17.368 30.3253H31.9358" stroke="white" stroke-width="2.71318" stroke-linecap="round" stroke-linejoin="round"/>
<path d="M71.9969 24.5969V21.5234H63.5057V16.4704H71.1113V13.5272H63.5057V8.63041H71.9969V5.55692H60.1718V24.5969H71.9969ZM78.3203 24.5969V17.6686C78.3203 15.5848 79.5184 14.2304 81.4719 14.2304C83.1129 14.2304 84.1808 15.2723 84.1808 17.4341V24.5969H87.3584V16.6788C87.3584 13.3448 85.6915 11.3392 82.4617 11.3392C80.7166 11.3392 79.1538 12.0946 78.3463 13.3969L78.0859 11.7299H75.1426V24.5969H78.3203ZM89.7513 17.8769C89.7513 21.6016 92.1475 24.3365 95.794 24.3365C97.6434 24.3365 99.2322 23.5811 100.04 22.383V24.5188C100.04 26.6546 98.6331 28.0351 96.4452 28.0351C94.4917 28.0351 93.2154 27.0453 93.0071 25.3783H89.8294C90.2201 28.8165 92.7466 30.9262 96.4452 30.9262C100.613 30.9262 103.191 28.2434 103.191 23.9458V11.7299H100.248L100.066 13.5011C99.3103 12.1206 97.7996 11.3132 95.8722 11.3132C92.1996 11.3132 89.7513 14.1262 89.7513 17.8769ZM92.955 17.7988C92.955 15.689 94.3094 14.1002 96.4192 14.1002C98.6331 14.1002 99.9615 15.6109 99.9615 17.7988C99.9615 20.0388 98.6071 21.5755 96.4192 21.5755C94.3354 21.5755 92.955 19.9606 92.955 17.7988ZM108.069 9.15134C109.111 9.15134 109.97 8.29181 109.97 7.2239C109.97 6.15599 109.111 5.3225 108.069 5.3225C106.975 5.3225 106.115 6.15599 106.115 7.2239C106.115 8.29181 106.975 9.15134 108.069 9.15134ZM106.48 24.5969H109.658V11.7299H106.48V24.5969ZM116.118 24.5969V17.6686C116.118 15.5848 117.316 14.2304 119.27 14.2304C120.911 14.2304 121.979 15.2723 121.979 17.4341V24.5969H125.156V16.6788C125.156 13.3448 123.489 11.3392 120.26 11.3392C118.515 11.3392 116.952 12.0946 116.144 13.3969L115.884 11.7299H112.941V24.5969H116.118ZM134.035 24.9355C137.395 24.9355 139.739 23.2425 140.286 20.4295H137.343C136.978 21.6537 135.832 22.3309 134.087 22.3309C131.977 22.3309 130.779 21.1848 130.545 18.9188L140.234 18.8927V17.929C140.234 13.9179 137.786 11.3392 133.931 11.3392C130.154 11.3392 127.523 14.1262 127.523 18.1634C127.523 22.1486 130.206 24.9355 134.035 24.9355ZM133.957 13.9439C135.858 13.9439 137.082 15.116 137.082 16.8872H130.623C130.935 14.9597 132.081 13.9439 133.957 13.9439ZM148.533 24.9355C151.893 24.9355 154.238 23.2425 154.785 20.4295H151.841C151.477 21.6537 150.331 22.3309 148.585 22.3309C146.476 22.3309 145.278 21.1848 145.043 18.9188L154.732 18.8927V17.929C154.732 13.9179 152.284 11.3392 148.429 11.3392C144.652 11.3392 142.022 14.1262 142.022 18.1634C142.022 22.1486 144.705 24.9355 148.533 24.9355ZM148.455 13.9439C150.357 13.9439 151.581 15.116 151.581 16.8872H145.121C145.434 14.9597 146.58 13.9439 148.455 13.9439ZM165.35 11.6779C164.829 11.5476 164.386 11.4955 163.944 11.4955C162.224 11.4955 161 12.3551 160.453 13.6313L160.271 11.756H157.276V24.5969H160.453V18.3458C160.453 15.8453 161.886 14.6211 164.178 14.6211H165.35V11.6779ZM171.869 7.74483C171.869 6.18204 170.983 5.19227 169.759 5.19227C168.613 5.19227 167.832 5.99971 167.832 7.14576C167.832 8.29181 168.587 8.94297 169.525 8.94297C169.811 8.94297 170.046 8.89088 170.254 8.81274C170.254 9.72436 169.446 10.4276 168.326 10.636V11.8862C170.41 11.6258 171.869 9.93274 171.869 7.74483ZM172.768 20.6899C172.768 23.2165 174.8 24.9355 178.004 24.9355C181.181 24.9355 183.395 23.3206 183.395 20.716C183.395 18.7365 182.301 17.7467 180.14 17.2518L177.821 16.7048C176.727 16.4444 176.154 15.9755 176.154 15.2462C176.154 14.2825 176.884 13.7095 178.134 13.7095C179.358 13.7095 180.087 14.4127 180.114 15.5067H183.135C183.109 13.0062 181.155 11.3392 178.264 11.3392C175.295 11.3392 173.159 12.8499 173.159 15.3765C173.159 17.4341 174.279 18.5281 176.597 19.049L178.915 19.596C180.061 19.8565 180.4 20.3253 180.4 20.9765C180.4 21.9141 179.593 22.5132 178.108 22.5132C176.649 22.5132 175.816 21.8099 175.79 20.6899H172.768ZM68.2202 50.9095C72.7262 50.9095 76.2164 48.2527 76.9457 44.2416H73.4815C72.8564 46.3513 70.8769 47.7058 68.2983 47.7058C64.8081 47.7058 62.5681 45.1011 62.5681 41.0639C62.5681 37.0006 64.782 34.4481 68.2983 34.4481C70.8248 34.4481 72.7262 35.7504 73.3774 37.9644H76.8936C76.2425 33.8751 72.8825 31.2444 68.3764 31.2444C62.8025 31.2444 59.0778 35.1774 59.0778 41.0899C59.0778 47.0546 62.6722 50.9095 68.2202 50.9095ZM87.5412 37.6779C87.0202 37.5476 86.5774 37.4955 86.1347 37.4955C84.4156 37.4955 83.1914 38.3551 82.6444 39.6313L82.4621 37.756H79.4668V50.5969H82.6444V44.3458C82.6444 41.8453 84.077 40.6211 86.3691 40.6211H87.5412V37.6779ZM93.0122 50.9355C95.0177 50.9355 96.7629 50.0239 97.3098 48.6955L97.5443 50.5969H100.331V42.783C100.331 39.2146 98.1954 37.3392 94.7312 37.3392C91.241 37.3392 88.9489 39.1625 88.9489 41.9495H91.6577C91.6577 40.5951 92.6996 39.8137 94.5749 39.8137C96.1898 39.8137 97.2317 40.5169 97.2317 42.262V42.5486L93.3768 42.8351C90.3294 43.0695 88.6103 44.5541 88.6103 46.9244C88.6103 49.3467 90.2773 50.9355 93.0122 50.9355ZM94.054 48.5392C92.6215 48.5392 91.8401 47.9662 91.8401 46.7941C91.8401 45.7523 92.5954 45.1011 94.5749 44.9188L97.2577 44.7104V45.3876C97.2577 47.3672 96.0075 48.5392 94.054 48.5392ZM108.74 50.9355C110.694 50.9355 112.361 50.076 113.142 48.5913L113.351 50.5969H116.268V31.2183H113.116V39.3709C112.309 38.0946 110.72 37.3392 108.923 37.3392C105.042 37.3392 102.698 40.2044 102.698 44.2155C102.698 48.2006 105.016 50.9355 108.74 50.9355ZM109.444 48.0183C107.23 48.0183 105.875 46.4034 105.875 44.1113C105.875 41.8192 107.23 40.1783 109.444 40.1783C111.658 40.1783 113.09 41.7932 113.09 44.1113C113.09 46.4295 111.658 48.0183 109.444 48.0183ZM122.783 50.5969V31.2183H119.631V50.5969H122.783ZM131.873 50.9355C135.233 50.9355 137.577 49.2425 138.124 46.4295H135.181C134.816 47.6537 133.67 48.3309 131.925 48.3309C129.815 48.3309 128.617 47.1848 128.383 44.9188L138.072 44.8927V43.929C138.072 39.9179 135.623 37.3392 131.769 37.3392C127.992 37.3392 125.361 40.1262 125.361 44.1634C125.361 48.1486 128.044 50.9355 131.873 50.9355ZM131.795 39.9439C133.696 39.9439 134.92 41.116 134.92 42.8872H128.461C128.773 40.9597 129.919 39.9439 131.795 39.9439Z" fill="#1684F8"/>
</svg>
